<?xml version="1.0" standalone="no"?>
<!DOCTYPE svg PUBLIC "-//W3C//DTD SVG 20010904//EN"
 "http://www.w3.org/TR/2001/REC-SVG-20010904/DTD/svg10.dtd">
<svg version="1.0" xmlns="http://www.w3.org/2000/svg"
 width="500.000000pt" height="500.000000pt" viewBox="0 0 500.000000 500.000000"
 preserveAspectRatio="xMidYMid meet">
<metadata>
Created by potrace 1.14, written by Peter Selinger 2001-2017
</metadata>
<g transform="translate(0.000000,500.000000) scale(0.100000,-0.100000)"
fill="#000000" stroke="none">
<path d="M0 2500 l0 -2500 2500 0 2500 0 0 2500 0 2500 -2500 0 -2500 0 0
-2500z m1900 648 l0 -593 -320 -190 c-177 -104 -325 -191 -330 -193 -11 -4
-14 1550 -3 1561 3 4 152 7 330 7 l323 0 0 -592z m1320 394 l0 -197 -323 -193
c-178 -105 -326 -192 -330 -192 -9 0 -9 765 0 773 3 4 152 7 330 7 l323 0 0
-198z m207 -939 c-5 -644 -6 -656 -68 -811 -52 -131 -151 -259 -269 -348 -60
-45 -215 -114 -314 -139 -278 -71 -633 -46 -861 59 -145 67 -268 174 -344 301
-41 68 -97 230 -106 305 l-6 55 312 185 c172 102 316 186 319 188 4 1 10 -82
13 -185 3 -114 11 -208 20 -238 46 -162 133 -229 302 -230 113 0 173 17 229
66 100 89 115 171 116 639 l0 356 323 192 c177 105 326 192 330 192 5 0 7
-264 4 -587z"/>
</g>
</svg>
